PathFileType	4	(X/Y/Z)	C:/Users/opensim2020/Desktop/walking_exp_matlab/subject01_walking17_run.trc	
DataRate	CameraRate	NumFrames	NumMarkers	Units	OrigDataRate	OrigDataStartFrame	OrigNumFrames	
100.00	100.00	4	61	mm	100.00	347	87	
Frame#	Time	LTHI			LKNE			RELB			STRN			RWRA			LSHO			RFRM			RUPA			RSHO			RASI			RBHD			RFIN			LFHD			RFHD			CLAV			LHEE			RWRB			LASI			LBHD			LWRA			LTIB			RTHI			LWRB			LTOE			RKNE			C7			LFRM			LFIN			LUPA			LELB			RTIB			RTOE			RBAK			RANK			T10			LPSI			LANK			RHEE			RPSI			*39			*40			*41			*42			*43			*44			*45			*46			*47			*48			*49			*50			*51			*52			*53			*54			*55			*56			*57			*58			*59			*60			
		X1	Y1	Z1	X2	Y2	Z2	X3	Y3	Z3	X4	Y4	Z4	X5	Y5	Z5	X6	Y6	Z6	X7	Y7	Z7	X8	Y8	Z8	X9	Y9	Z9	X10	Y10	Z10	X11	Y11	Z11	X12	Y12	Z12	X13	Y13	Z13	X14	Y14	Z14	X15	Y15	Z15	X16	Y16	Z16	X17	Y17	Z17	X18	Y18	Z18	X19	Y19	Z19	X20	Y20	Z20	X21	Y21	Z21	X22	Y22	Z22	X23	Y23	Z23	X24	Y24	Z24	X25	Y25	Z25	X26	Y26	Z26	X27	Y27	Z27	X28	Y28	Z28	X29	Y29	Z29	X30	Y30	Z30	X31	Y31	Z31	X32	Y32	Z32	X33	Y33	Z33	X34	Y34	Z34	X35	Y35	Z35	X36	Y36	Z36	X37	Y37	Z37	X38	Y38	Z38	X39	Y39	Z39	X40	Y40	Z40	X41	Y41	Z41	X42	Y42	Z42	X43	Y43	Z43	X44	Y44	Z44	X45	Y45	Z45	X46	Y46	Z46	X47	Y47	Z47	X48	Y48	Z48	X49	Y49	Z49	X50	Y50	Z50	X51	Y51	Z51	X52	Y52	Z52	X53	Y53	Z53	X54	Y54	Z54	X55	Y55	Z55	X56	Y56	Z56	X57	Y57	Z57	X58	Y58	Z58	X59	Y59	Z59	X60	Y60	Z60	X61	Y61	Z61	

77	0.760	-587.24829	1604.01160	671.87665	-574.90442	1671.78381	551.85132	-159.92070	1463.34863	1081.30713	-475.66513	1536.85510	1219.75854	-350.91751	1595.63367	1164.39026	-592.11743	1406.09937	1399.96619	-249.53790	1553.06628	1083.80933	-175.98080	1451.33826	1211.96423	-299.84354	1469.90710	1390.21814	-318.76605	1481.45422	937.55817	-349.23444	1401.06921	1619.82776	-390.13776	1669.18274	1168.75500	-486.28278	1482.14734	1673.81543	-377.45566	1509.72974	1675.71338	-456.26309	1495.57263	1370.21704	-475.96176	1747.47498	139.78954	-341.39902	1626.03687	1119.32361	-525.84961	1489.90076	951.10229	-465.65768	1373.48694	1621.42590	-747.86597	1325.96606	1003.68848	-586.58746	1706.66272	364.38602	-257.29764	1352.54285	612.04059	-779.33722	1278.22485	987.90259	-531.44775	1923.98181	102.88408	-280.81799	1303.95813	452.14313	-419.52975	1355.96716	1431.36890	-767.88812	1228.02844	1103.66455	-790.26910	1348.57935	935.94336	-686.47803	1284.84412	1315.62439	-733.52557	1182.72620	1214.70154	-269.01184	1135.40564	391.11340	-311.95712	944.42413	141.70255	-325.02020	1317.46545	1243.65320	-302.84589	948.75446	293.94592	-409.19370	1313.52063	1146.80542	-476.28204	1310.52222	964.28430	-535.22003	1778.22729	156.34389	-352.37296	901.87744	324.98184	-338.77368	1314.61169	975.28003	-3102.05786	1973.17371	1023.52289	-3140.91113	2012.25488	1021.29639				-395.07678	1494.02222	1713.03601																																																						 
78	0.770	-590.12256	1647.36145	659.30896	-575.99335	1713.48755	540.35919	-160.12083	1502.63159	1081.31580	-477.49829	1581.22583	1219.15625	-351.88138	1635.72046	1161.20508	-595.17908	1448.84631	1397.48425	-250.31540	1592.08301	1081.32190	-176.99911	1491.69995	1211.21265	-302.63736	1512.20972	1389.20435	-319.38776	1528.68188	937.64496	-352.47562	1444.10730	1618.34314	-392.64297	1708.70703	1163.83826	-489.52240	1525.44690	1671.84863	-380.66785	1552.89771	1673.88770	-459.02942	1538.56006	1369.48767	-479.69202	1798.93884	134.03197	-342.58301	1665.18628	1115.39661	-526.49390	1538.68896	947.33337	-468.98630	1416.76685	1619.79285	-748.44427	1376.44727	1002.70685	-587.74738	1752.60962	357.33633	-255.07333	1402.44739	611.23712	-779.87170	1329.21692	985.28534	-532.71600	1975.86743	97.12301	-276.24142	1353.27478	452.41656	-421.84586	1398.50525	1428.79480	-769.12634	1275.92419	1099.51721	-790.03607	1400.87854	934.90271	-688.69824	1328.40320	1310.50122	-735.68066	1227.15210	1209.25818	-267.92215	1179.91846	402.32974	-304.63385	978.74854	163.74657	-328.39841	1360.82031	1241.10400	-303.20572	989.99567	315.02255	-412.02362	1357.69165	1145.28271	-478.32431	1359.85010	963.75854	-538.60449	1829.07019	150.30345	-356.09366	945.85632	346.15958	-340.48096	1362.73120	976.80786	-3101.86938	1973.22607	1023.66229	-3140.91479	2012.12146	1021.44232				-398.84647	1537.44250	1711.28442																																																						 
79	0.780	-593.59814	1690.94092	646.41663	-577.37360	1756.56409	529.85052	-159.75980	1540.08044	1080.48047	-478.87451	1625.61853	1216.94836	-352.15155	1676.00757	1155.10999	-598.19940	1492.15955	1394.05994	-249.84705	1630.10303	1076.76233	-177.74443	1530.29187	1209.69934	-305.00583	1553.84680	1387.04688	-319.94925	1575.58972	936.96802	-355.76877	1486.62292	1615.44983	-393.74344	1748.60144	1155.44666	-492.41379	1568.31946	1669.03955	-383.56622	1595.51257	1671.19055	-461.28467	1581.70972	1367.41919	-483.30850	1841.72644	126.17937	-341.87378	1704.55005	1108.73267	-526.54016	1587.40942	942.27417	-472.07803	1459.58838	1616.89429	-748.50024	1428.66870	1000.49622	-589.54633	1795.76270	349.69547	-252.44513	1453.19946	609.53864	-780.04358	1382.32507	981.43951	-533.70526	2018.68408	86.96531	-270.86139	1404.46167	451.66928	-424.93411	1440.98486	1425.49109	-770.56567	1325.71179	1093.99622	-789.62280	1455.18970	932.84802	-691.12329	1372.56177	1303.92419	-738.29559	1272.76123	1201.99915	-267.03098	1227.87964	413.28168	-297.97250	1017.02216	186.52263	-332.26682	1403.44897	1238.31348	-304.41824	1034.68933	336.34348	-416.13068	1402.81958	1142.30664	-481.36752	1408.58850	961.10632	-541.62268	1872.20532	142.22185	-360.35342	993.30597	367.01993	-343.29413	1409.95532	976.43225	-3101.82300	1973.18750	1022.74890	-3140.94043	2012.18640	1021.55322				-402.33084	1580.49170	1708.62341																																																						 
80	0.790	-596.65454	1734.56909	634.00769	-578.25647	1800.72583	520.81451	-159.23360	1575.35608	1078.54712	-479.83844	1669.96814	1213.24951	-351.72345	1716.00269	1145.79456	-601.43665	1535.97571	1389.56458	-248.05927	1667.02014	1070.18384	-178.47282	1567.30029	1207.65991	-306.84653	1595.22607	1383.77075	-320.02740	1622.36755	935.74390	-358.57358	1528.90222	1611.42651	-393.12881	1788.68591	1143.42346	-495.13458	1610.67432	1665.42871	-386.20297	1637.56323	1667.61829	-463.25766	1625.04126	1363.98071	-486.79495	1877.23132	116.66579	-339.24020	1743.87085	1099.18140	-526.11945	1635.50159	936.36536	-475.31128	1501.68433	1612.87793	-747.99725	1483.12439	997.30640	-591.15906	1836.31506	341.14423	-249.03467	1504.35474	606.82275	-779.72339	1437.73706	976.64978	-533.11255	2053.76782	72.40013	-265.38968	1457.52185	449.71872	-428.65695	1483.56604	1421.44275	-771.89429	1377.33472	1087.12256	-788.51019	1511.73633	929.96661	-693.86987	1417.34766	1296.00110	-741.62958	1319.95374	1193.10242	-266.49197	1279.34656	422.50095	-293.97171	1058.33240	207.95135	-336.40652	1445.59937	1235.01794	-305.74396	1084.02100	356.46863	-420.61398	1447.64075	1138.07056	-485.18372	1456.92603	956.23438	-544.39056	1908.82373	131.69612	-363.91977	1045.05798	386.71866	-347.29846	1456.34668	974.09070	-3102.04419	1972.93787	1024.46753	-3140.96680	2012.10095	1021.48907				-405.53622	1623.13818	1705.10132																																																						 
